<svg width="8" height="6" viewBox="0 0 8 6" fill="none" xmlns="http://www.w3.org/2000/svg">
    <path d="M7.85548 0.828283C7.95183 0.922559 8 1.03704 8 1.17172C8 1.3064 7.95183 1.42088 7.85548 1.51515L3.41677 5.85859C3.32043 5.95286 3.20344 6 3.06581 6C2.92817 6 2.81118 5.95286 2.71484 5.85859L0.144516 3.34343C0.048172 3.24916 0 3.13468 0 3C0 2.86532 0.048172 2.75084 0.144516 2.65657L0.846452 1.9697C0.942796 1.87542 1.05979 1.82828 1.19742 1.82828C1.33505 1.82828 1.45204 1.87542 1.54839 1.9697L3.06581 3.4596L6.45161 0.141414C6.54796 0.047138 6.66495 0 6.80258 0C6.94022 0 7.0572 0.047138 7.15355 0.141414L7.85548 0.828283Z" fill="#1A1C22"/>
</svg>
