<svg width="24" height="18" viewBox="0 0 24 18" fill="none" xmlns="http://www.w3.org/2000/svg">
    <path fill-rule="evenodd" clip-rule="evenodd" d="M12 8.82297L0.00449893 2.82599C0.0489049 2.06166 0.38386 1.34323 0.940762 0.817837C1.49766 0.292447 2.23437 -0.000140276 2.99999 5.04523e-08H20.9999C21.7655 -0.000140276 22.5022 0.292447 23.0592 0.817837C23.6161 1.34323 23.951 2.06166 23.9954 2.82599L12 8.82297ZM12 12.177L23.9999 6.17704V15C23.9999 15.7957 23.6838 16.5587 23.1212 17.1213C22.5586 17.6839 21.7956 18 20.9999 18H2.99999C2.20434 18 1.44128 17.6839 0.878676 17.1213C0.316069 16.5587 0 15.7957 0 15V6.17704L12 12.177Z" fill="white"/>
</svg>
