<svg width="18" height="25" viewBox="0 0 18 25" fill="none" xmlns="http://www.w3.org/2000/svg">
    <path d="M8.99618 7.59841e-10C6.61746 0.00199691 4.33618 0.95002 2.6506 2.63701C0.965012 4.324 0.0121046 6.61286 0 9.00368C0 12.5883 2.00085 15.5895 3.46712 17.7771L3.73441 18.1762C5.19325 20.3014 6.75826 22.3509 8.42342 24.3169L9.00382 25L9.58422 24.3169C11.2492 22.3507 12.8142 20.3012 14.2732 18.1762L14.5405 17.7694C15.9992 15.5818 18 12.5883 18 9.00368C17.9879 6.61153 17.0339 4.32151 15.3467 2.6343C13.6595 0.947097 11.3762 -3.09764e-05 8.99618 7.59841e-10ZM8.99618 13.0488C8.00535 13.0488 7.03676 12.7535 6.21291 12.2002C5.38906 11.6469 4.74694 10.8605 4.36777 9.94044C3.98859 9.02036 3.88938 8.00792 4.08268 7.03117C4.27599 6.05442 4.75312 5.15721 5.45375 4.45301C6.15437 3.74881 7.04703 3.26924 8.01883 3.07495C8.99062 2.88066 9.99792 2.98038 10.9133 3.36149C11.8287 3.7426 12.6112 4.38799 13.1616 5.21604C13.7121 6.04409 14.0059 7.01762 14.0059 8.01351C14.0059 9.34896 13.4781 10.6297 12.5386 11.574C11.5991 12.5183 10.3249 13.0488 8.99618 13.0488Z" fill="red"/>
</svg>
