<svg width="80" height="60" viewBox="0 0 80 60" fill="none" xmlns="http://www.w3.org/2000/svg">
    <path d="M78.5548 8.28283C79.5183 9.22559 80 10.3704 80 11.7172C80 13.064 79.5183 14.2088 78.5548 15.1515L34.1677 58.5859C33.2043 59.5286 32.0344 60 30.6581 60C29.2817 60 28.1118 59.5286 27.1484 58.5859L1.44516 33.4343C0.48172 32.4916 0 31.3468 0 30C0 28.6532 0.48172 27.5084 1.44516 26.5657L8.46452 19.697C9.42796 18.7542 10.5978 18.2828 11.9742 18.2828C13.3505 18.2828 14.5204 18.7542 15.4839 19.697L30.6581 34.596L64.5161 1.41414C65.4796 0.47138 66.6495 0 68.0258 0C69.4022 0 70.572 0.47138 71.5355 1.41414L78.5548 8.28283Z" fill="#0051B5"/>
</svg>
