<svg width="20" height="20" viewBox="0 0 20 20" fill="none" xmlns="http://www.w3.org/2000/svg">
    <path fill-rule="evenodd" clip-rule="evenodd" d="M16.553 8.27648C16.553 10.0204 16.0126 11.6375 15.0917 12.9714L20 17.8795L18.1993 19.6799L13.3404 14.821C11.9405 15.9056 10.1846 16.5529 8.27648 16.5529C3.7048 16.5529 0 12.8473 0 8.27644C0 3.70555 3.7048 0 8.27648 0C12.8482 0 16.553 3.70558 16.553 8.27648ZM1.78262 8.27644C1.78262 11.8573 4.69574 14.7703 8.27648 14.7703C11.8572 14.7703 14.7703 11.8573 14.7703 8.27644C14.7703 4.69562 11.8573 1.78258 8.27648 1.78258C4.69566 1.78258 1.78262 4.6957 1.78262 8.27644ZM9.16778 4.32896V7.51228H12.3511V9.2949H9.16778V12.4781H7.38516V9.2949H4.20192V7.51228H7.38516V4.32896H9.16778Z" fill="#B4BAC8"/>
</svg>
